<mxfile host="Electron" agent="Mozilla/5.0 (X11; Linux x86_64) AppleWebKit/537.36 (KHTML, like Gecko) draw.io/26.2.2 Chrome/134.0.6998.178 Electron/35.1.2 Safari/537.36" version="26.2.2">
  <diagram name="PÃ¡gina-1" id="GVHrLX6mfsKCfZDiuI6_">
    <mxGraphModel dx="1942" dy="1930" grid="1" gridSize="10" guides="1" tooltips="1" connect="1" arrows="1" fold="1" page="1" pageScale="1" pageWidth="827" pageHeight="1169" math="0" shadow="0">
      <root>
        <mxCell id="0" />
        <mxCell id="1" parent="0" />
        <mxCell id="J758qE4sNnt40KiTb17j-179" value="" style="edgeStyle=orthogonalEdgeStyle;rounded=0;orthogonalLoop=1;jettySize=auto;html=1;" parent="1" source="J758qE4sNnt40KiTb17j-152" edge="1">
          <mxGeometry relative="1" as="geometry">
            <mxPoint y="475" as="targetPoint" />
          </mxGeometry>
        </mxCell>
        <mxCell id="J758qE4sNnt40KiTb17j-215" value="" style="group" parent="1" vertex="1" connectable="0">
          <mxGeometry x="-590" y="-1020" width="1140" height="810" as="geometry" />
        </mxCell>
        <mxCell id="J758qE4sNnt40KiTb17j-210" value="" style="rounded=0;whiteSpace=wrap;html=1;" parent="J758qE4sNnt40KiTb17j-215" vertex="1">
          <mxGeometry width="1140" height="810" as="geometry" />
        </mxCell>
        <mxCell id="J758qE4sNnt40KiTb17j-1" value="CCAAS" style="shape=table;startSize=30;container=1;collapsible=0;childLayout=tableLayout;fillColor=#66B2FF;" parent="J758qE4sNnt40KiTb17j-215" vertex="1">
          <mxGeometry x="50" y="240" width="210" height="75" as="geometry" />
        </mxCell>
        <mxCell id="J758qE4sNnt40KiTb17j-2" value="" style="shape=tableRow;horizontal=0;startSize=0;swimlaneHead=0;swimlaneBody=0;strokeColor=inherit;top=0;left=0;bottom=0;right=0;collapsible=0;dropTarget=0;fillColor=#9BFF94;points=[[0,0.5],[1,0.5]];portConstraint=eastwest;" parent="J758qE4sNnt40KiTb17j-1" vertex="1">
          <mxGeometry y="30" width="210" height="23" as="geometry" />
        </mxCell>
        <mxCell id="J758qE4sNnt40KiTb17j-3" value="PK" style="shape=partialRectangle;html=1;whiteSpace=wrap;connectable=0;strokeColor=#FFFFFF;overflow=hidden;fillColor=#9BFF94;top=0;left=0;bottom=0;right=0;pointerEvents=1;" parent="J758qE4sNnt40KiTb17j-2" vertex="1">
          <mxGeometry width="30" height="23" as="geometry">
            <mxRectangle width="30" height="23" as="alternateBounds" />
          </mxGeometry>
        </mxCell>
        <mxCell id="J758qE4sNnt40KiTb17j-4" value="ccaa_id" style="shape=partialRectangle;html=1;whiteSpace=wrap;connectable=0;strokeColor=#000000;overflow=hidden;fillColor=#FFFFFF;top=0;left=0;bottom=0;right=0;pointerEvents=1;" parent="J758qE4sNnt40KiTb17j-2" vertex="1">
          <mxGeometry x="30" width="110" height="23" as="geometry">
            <mxRectangle width="110" height="23" as="alternateBounds" />
          </mxGeometry>
        </mxCell>
        <mxCell id="J758qE4sNnt40KiTb17j-5" value="int" style="shape=partialRectangle;html=1;whiteSpace=wrap;connectable=0;strokeColor=#FFFFFF;overflow=hidden;fillColor=#FFFFFF;top=0;left=0;bottom=0;right=0;pointerEvents=1;" parent="J758qE4sNnt40KiTb17j-2" vertex="1">
          <mxGeometry x="140" width="70" height="23" as="geometry">
            <mxRectangle width="70" height="23" as="alternateBounds" />
          </mxGeometry>
        </mxCell>
        <mxCell id="J758qE4sNnt40KiTb17j-6" style="shape=tableRow;horizontal=0;startSize=0;swimlaneHead=0;swimlaneBody=0;strokeColor=inherit;top=0;left=0;bottom=0;right=0;collapsible=0;dropTarget=0;fillColor=none;points=[[0,0.5],[1,0.5]];portConstraint=eastwest;" parent="J758qE4sNnt40KiTb17j-1" vertex="1">
          <mxGeometry y="53" width="210" height="22" as="geometry" />
        </mxCell>
        <mxCell id="J758qE4sNnt40KiTb17j-7" value="" style="shape=partialRectangle;html=1;whiteSpace=wrap;connectable=0;strokeColor=#FFFFFF;overflow=hidden;fillColor=#9BFF94;top=0;left=0;bottom=0;right=0;pointerEvents=1;" parent="J758qE4sNnt40KiTb17j-6" vertex="1">
          <mxGeometry width="30" height="22" as="geometry">
            <mxRectangle width="30" height="22" as="alternateBounds" />
          </mxGeometry>
        </mxCell>
        <mxCell id="J758qE4sNnt40KiTb17j-8" value="ccaa_name" style="shape=partialRectangle;html=1;whiteSpace=wrap;connectable=0;strokeColor=#FFFFFF;overflow=hidden;fillColor=#FFFFFF;top=0;left=0;bottom=0;right=0;pointerEvents=1;" parent="J758qE4sNnt40KiTb17j-6" vertex="1">
          <mxGeometry x="30" width="110" height="22" as="geometry">
            <mxRectangle width="110" height="22" as="alternateBounds" />
          </mxGeometry>
        </mxCell>
        <mxCell id="J758qE4sNnt40KiTb17j-9" value="varchar" style="shape=partialRectangle;html=1;whiteSpace=wrap;connectable=0;strokeColor=#FFFFFF;overflow=hidden;fillColor=#FFFFFF;top=0;left=0;bottom=0;right=0;pointerEvents=1;" parent="J758qE4sNnt40KiTb17j-6" vertex="1">
          <mxGeometry x="140" width="70" height="22" as="geometry">
            <mxRectangle width="70" height="22" as="alternateBounds" />
          </mxGeometry>
        </mxCell>
        <mxCell id="J758qE4sNnt40KiTb17j-10" value="" style="shape=table;startSize=0;container=1;collapsible=0;childLayout=tableLayout;strokeColor=#000000;" parent="J758qE4sNnt40KiTb17j-215" vertex="1">
          <mxGeometry x="50" y="150" width="120" height="40" as="geometry" />
        </mxCell>
        <mxCell id="J758qE4sNnt40KiTb17j-11" value="" style="shape=tableRow;horizontal=0;startSize=0;swimlaneHead=0;swimlaneBody=0;strokeColor=inherit;top=0;left=0;bottom=0;right=0;collapsible=0;dropTarget=0;fillColor=none;points=[[0,0.5],[1,0.5]];portConstraint=eastwest;" parent="J758qE4sNnt40KiTb17j-10" vertex="1">
          <mxGeometry width="120" height="20" as="geometry" />
        </mxCell>
        <mxCell id="J758qE4sNnt40KiTb17j-12" value="" style="shape=partialRectangle;html=1;whiteSpace=wrap;connectable=0;strokeColor=#000000;overflow=hidden;fillColor=#9BFF94;top=0;left=0;bottom=0;right=0;pointerEvents=1;shadow=0;" parent="J758qE4sNnt40KiTb17j-11" vertex="1">
          <mxGeometry width="20" height="20" as="geometry">
            <mxRectangle width="20" height="20" as="alternateBounds" />
          </mxGeometry>
        </mxCell>
        <mxCell id="J758qE4sNnt40KiTb17j-13" value="NOT NULL" style="shape=partialRectangle;html=1;whiteSpace=wrap;connectable=0;strokeColor=inherit;overflow=hidden;fillColor=none;top=0;left=0;bottom=0;right=0;pointerEvents=1;" parent="J758qE4sNnt40KiTb17j-11" vertex="1">
          <mxGeometry x="20" width="100" height="20" as="geometry">
            <mxRectangle width="100" height="20" as="alternateBounds" />
          </mxGeometry>
        </mxCell>
        <mxCell id="J758qE4sNnt40KiTb17j-14" value="" style="shape=tableRow;horizontal=0;startSize=0;swimlaneHead=0;swimlaneBody=0;strokeColor=inherit;top=0;left=0;bottom=0;right=0;collapsible=0;dropTarget=0;fillColor=none;points=[[0,0.5],[1,0.5]];portConstraint=eastwest;" parent="J758qE4sNnt40KiTb17j-10" vertex="1">
          <mxGeometry y="20" width="120" height="20" as="geometry" />
        </mxCell>
        <mxCell id="J758qE4sNnt40KiTb17j-15" value="" style="shape=partialRectangle;html=1;whiteSpace=wrap;connectable=0;strokeColor=#82b366;overflow=hidden;fillColor=#d5e8d4;top=0;left=0;bottom=0;right=0;pointerEvents=1;shadow=0;" parent="J758qE4sNnt40KiTb17j-14" vertex="1">
          <mxGeometry width="20" height="20" as="geometry">
            <mxRectangle width="20" height="20" as="alternateBounds" />
          </mxGeometry>
        </mxCell>
        <mxCell id="J758qE4sNnt40KiTb17j-16" value="" style="shape=partialRectangle;html=1;whiteSpace=wrap;connectable=0;strokeColor=inherit;overflow=hidden;fillColor=none;top=0;left=0;bottom=0;right=0;pointerEvents=1;" parent="J758qE4sNnt40KiTb17j-14" vertex="1">
          <mxGeometry x="20" width="100" height="20" as="geometry">
            <mxRectangle width="100" height="20" as="alternateBounds" />
          </mxGeometry>
        </mxCell>
        <mxCell id="J758qE4sNnt40KiTb17j-17" value="PROVINCES" style="shape=table;startSize=30;container=1;collapsible=0;childLayout=tableLayout;fillColor=#66B2FF;" parent="J758qE4sNnt40KiTb17j-215" vertex="1">
          <mxGeometry x="326" y="229" width="210" height="97" as="geometry" />
        </mxCell>
        <mxCell id="J758qE4sNnt40KiTb17j-18" value="" style="shape=tableRow;horizontal=0;startSize=0;swimlaneHead=0;swimlaneBody=0;strokeColor=inherit;top=0;left=0;bottom=0;right=0;collapsible=0;dropTarget=0;fillColor=#9BFF94;points=[[0,0.5],[1,0.5]];portConstraint=eastwest;" parent="J758qE4sNnt40KiTb17j-17" vertex="1">
          <mxGeometry y="30" width="210" height="23" as="geometry" />
        </mxCell>
        <mxCell id="J758qE4sNnt40KiTb17j-19" value="PK" style="shape=partialRectangle;html=1;whiteSpace=wrap;connectable=0;strokeColor=#FFFFFF;overflow=hidden;fillColor=#9BFF94;top=0;left=0;bottom=0;right=0;pointerEvents=1;" parent="J758qE4sNnt40KiTb17j-18" vertex="1">
          <mxGeometry width="30" height="23" as="geometry">
            <mxRectangle width="30" height="23" as="alternateBounds" />
          </mxGeometry>
        </mxCell>
        <mxCell id="J758qE4sNnt40KiTb17j-20" value="province_id" style="shape=partialRectangle;html=1;whiteSpace=wrap;connectable=0;strokeColor=#000000;overflow=hidden;fillColor=#FFFFFF;top=0;left=0;bottom=0;right=0;pointerEvents=1;" parent="J758qE4sNnt40KiTb17j-18" vertex="1">
          <mxGeometry x="30" width="110" height="23" as="geometry">
            <mxRectangle width="110" height="23" as="alternateBounds" />
          </mxGeometry>
        </mxCell>
        <mxCell id="J758qE4sNnt40KiTb17j-21" value="int" style="shape=partialRectangle;html=1;whiteSpace=wrap;connectable=0;strokeColor=#FFFFFF;overflow=hidden;fillColor=#FFFFFF;top=0;left=0;bottom=0;right=0;pointerEvents=1;" parent="J758qE4sNnt40KiTb17j-18" vertex="1">
          <mxGeometry x="140" width="70" height="23" as="geometry">
            <mxRectangle width="70" height="23" as="alternateBounds" />
          </mxGeometry>
        </mxCell>
        <mxCell id="J758qE4sNnt40KiTb17j-22" style="shape=tableRow;horizontal=0;startSize=0;swimlaneHead=0;swimlaneBody=0;strokeColor=inherit;top=0;left=0;bottom=0;right=0;collapsible=0;dropTarget=0;fillColor=none;points=[[0,0.5],[1,0.5]];portConstraint=eastwest;" parent="J758qE4sNnt40KiTb17j-17" vertex="1">
          <mxGeometry y="53" width="210" height="22" as="geometry" />
        </mxCell>
        <mxCell id="J758qE4sNnt40KiTb17j-23" value="" style="shape=partialRectangle;html=1;whiteSpace=wrap;connectable=0;strokeColor=#FFFFFF;overflow=hidden;fillColor=#9BFF94;top=0;left=0;bottom=0;right=0;pointerEvents=1;" parent="J758qE4sNnt40KiTb17j-22" vertex="1">
          <mxGeometry width="30" height="22" as="geometry">
            <mxRectangle width="30" height="22" as="alternateBounds" />
          </mxGeometry>
        </mxCell>
        <mxCell id="J758qE4sNnt40KiTb17j-24" value="province_name" style="shape=partialRectangle;html=1;whiteSpace=wrap;connectable=0;strokeColor=#FFFFFF;overflow=hidden;fillColor=#FFFFFF;top=0;left=0;bottom=0;right=0;pointerEvents=1;" parent="J758qE4sNnt40KiTb17j-22" vertex="1">
          <mxGeometry x="30" width="110" height="22" as="geometry">
            <mxRectangle width="110" height="22" as="alternateBounds" />
          </mxGeometry>
        </mxCell>
        <mxCell id="J758qE4sNnt40KiTb17j-25" value="varchar" style="shape=partialRectangle;html=1;whiteSpace=wrap;connectable=0;strokeColor=#FFFFFF;overflow=hidden;fillColor=#FFFFFF;top=0;left=0;bottom=0;right=0;pointerEvents=1;" parent="J758qE4sNnt40KiTb17j-22" vertex="1">
          <mxGeometry x="140" width="70" height="22" as="geometry">
            <mxRectangle width="70" height="22" as="alternateBounds" />
          </mxGeometry>
        </mxCell>
        <mxCell id="J758qE4sNnt40KiTb17j-26" style="shape=tableRow;horizontal=0;startSize=0;swimlaneHead=0;swimlaneBody=0;strokeColor=inherit;top=0;left=0;bottom=0;right=0;collapsible=0;dropTarget=0;fillColor=none;points=[[0,0.5],[1,0.5]];portConstraint=eastwest;" parent="J758qE4sNnt40KiTb17j-17" vertex="1">
          <mxGeometry y="75" width="210" height="22" as="geometry" />
        </mxCell>
        <mxCell id="J758qE4sNnt40KiTb17j-27" value="FK" style="shape=partialRectangle;html=1;whiteSpace=wrap;connectable=0;strokeColor=#FFFFFF;overflow=hidden;fillColor=#9BFF94;top=0;left=0;bottom=0;right=0;pointerEvents=1;" parent="J758qE4sNnt40KiTb17j-26" vertex="1">
          <mxGeometry width="30" height="22" as="geometry">
            <mxRectangle width="30" height="22" as="alternateBounds" />
          </mxGeometry>
        </mxCell>
        <mxCell id="J758qE4sNnt40KiTb17j-28" value="ccaa_id" style="shape=partialRectangle;html=1;whiteSpace=wrap;connectable=0;strokeColor=#FFFFFF;overflow=hidden;fillColor=#FFFFFF;top=0;left=0;bottom=0;right=0;pointerEvents=1;" parent="J758qE4sNnt40KiTb17j-26" vertex="1">
          <mxGeometry x="30" width="110" height="22" as="geometry">
            <mxRectangle width="110" height="22" as="alternateBounds" />
          </mxGeometry>
        </mxCell>
        <mxCell id="J758qE4sNnt40KiTb17j-29" value="int" style="shape=partialRectangle;html=1;whiteSpace=wrap;connectable=0;strokeColor=#FFFFFF;overflow=hidden;fillColor=#FFFFFF;top=0;left=0;bottom=0;right=0;pointerEvents=1;" parent="J758qE4sNnt40KiTb17j-26" vertex="1">
          <mxGeometry x="140" width="70" height="22" as="geometry">
            <mxRectangle width="70" height="22" as="alternateBounds" />
          </mxGeometry>
        </mxCell>
        <mxCell id="J758qE4sNnt40KiTb17j-30" value="" style="edgeStyle=entityRelationEdgeStyle;fontSize=12;html=1;endArrow=ERoneToMany;rounded=1;entryX=0;entryY=0.5;entryDx=0;entryDy=0;exitX=1;exitY=0.5;exitDx=0;exitDy=0;startArrow=ERone;startFill=0;curved=0;" parent="J758qE4sNnt40KiTb17j-215" source="J758qE4sNnt40KiTb17j-2" target="J758qE4sNnt40KiTb17j-26" edge="1">
          <mxGeometry width="100" height="100" relative="1" as="geometry">
            <mxPoint x="256" y="-43" as="sourcePoint" />
            <mxPoint x="318" y="-19" as="targetPoint" />
          </mxGeometry>
        </mxCell>
        <mxCell id="J758qE4sNnt40KiTb17j-31" value="CITIES" style="shape=table;startSize=30;container=1;collapsible=0;childLayout=tableLayout;fillColor=#66B2FF;" parent="J758qE4sNnt40KiTb17j-215" vertex="1">
          <mxGeometry x="606" y="229" width="210" height="97" as="geometry" />
        </mxCell>
        <mxCell id="J758qE4sNnt40KiTb17j-32" value="" style="shape=tableRow;horizontal=0;startSize=0;swimlaneHead=0;swimlaneBody=0;strokeColor=inherit;top=0;left=0;bottom=0;right=0;collapsible=0;dropTarget=0;fillColor=#9BFF94;points=[[0,0.5],[1,0.5]];portConstraint=eastwest;" parent="J758qE4sNnt40KiTb17j-31" vertex="1">
          <mxGeometry y="30" width="210" height="23" as="geometry" />
        </mxCell>
        <mxCell id="J758qE4sNnt40KiTb17j-33" value="PK" style="shape=partialRectangle;html=1;whiteSpace=wrap;connectable=0;strokeColor=#FFFFFF;overflow=hidden;fillColor=#9BFF94;top=0;left=0;bottom=0;right=0;pointerEvents=1;" parent="J758qE4sNnt40KiTb17j-32" vertex="1">
          <mxGeometry width="30" height="23" as="geometry">
            <mxRectangle width="30" height="23" as="alternateBounds" />
          </mxGeometry>
        </mxCell>
        <mxCell id="J758qE4sNnt40KiTb17j-34" value="city_id" style="shape=partialRectangle;html=1;whiteSpace=wrap;connectable=0;strokeColor=#000000;overflow=hidden;fillColor=#FFFFFF;top=0;left=0;bottom=0;right=0;pointerEvents=1;" parent="J758qE4sNnt40KiTb17j-32" vertex="1">
          <mxGeometry x="30" width="110" height="23" as="geometry">
            <mxRectangle width="110" height="23" as="alternateBounds" />
          </mxGeometry>
        </mxCell>
        <mxCell id="J758qE4sNnt40KiTb17j-35" value="int" style="shape=partialRectangle;html=1;whiteSpace=wrap;connectable=0;strokeColor=#FFFFFF;overflow=hidden;fillColor=#FFFFFF;top=0;left=0;bottom=0;right=0;pointerEvents=1;" parent="J758qE4sNnt40KiTb17j-32" vertex="1">
          <mxGeometry x="140" width="70" height="23" as="geometry">
            <mxRectangle width="70" height="23" as="alternateBounds" />
          </mxGeometry>
        </mxCell>
        <mxCell id="J758qE4sNnt40KiTb17j-36" style="shape=tableRow;horizontal=0;startSize=0;swimlaneHead=0;swimlaneBody=0;strokeColor=inherit;top=0;left=0;bottom=0;right=0;collapsible=0;dropTarget=0;fillColor=none;points=[[0,0.5],[1,0.5]];portConstraint=eastwest;" parent="J758qE4sNnt40KiTb17j-31" vertex="1">
          <mxGeometry y="53" width="210" height="22" as="geometry" />
        </mxCell>
        <mxCell id="J758qE4sNnt40KiTb17j-37" value="" style="shape=partialRectangle;html=1;whiteSpace=wrap;connectable=0;strokeColor=#FFFFFF;overflow=hidden;fillColor=#9BFF94;top=0;left=0;bottom=0;right=0;pointerEvents=1;" parent="J758qE4sNnt40KiTb17j-36" vertex="1">
          <mxGeometry width="30" height="22" as="geometry">
            <mxRectangle width="30" height="22" as="alternateBounds" />
          </mxGeometry>
        </mxCell>
        <mxCell id="J758qE4sNnt40KiTb17j-38" value="city_name" style="shape=partialRectangle;html=1;whiteSpace=wrap;connectable=0;strokeColor=#FFFFFF;overflow=hidden;fillColor=#FFFFFF;top=0;left=0;bottom=0;right=0;pointerEvents=1;" parent="J758qE4sNnt40KiTb17j-36" vertex="1">
          <mxGeometry x="30" width="110" height="22" as="geometry">
            <mxRectangle width="110" height="22" as="alternateBounds" />
          </mxGeometry>
        </mxCell>
        <mxCell id="J758qE4sNnt40KiTb17j-39" value="varchar" style="shape=partialRectangle;html=1;whiteSpace=wrap;connectable=0;strokeColor=#FFFFFF;overflow=hidden;fillColor=#FFFFFF;top=0;left=0;bottom=0;right=0;pointerEvents=1;" parent="J758qE4sNnt40KiTb17j-36" vertex="1">
          <mxGeometry x="140" width="70" height="22" as="geometry">
            <mxRectangle width="70" height="22" as="alternateBounds" />
          </mxGeometry>
        </mxCell>
        <mxCell id="J758qE4sNnt40KiTb17j-40" style="shape=tableRow;horizontal=0;startSize=0;swimlaneHead=0;swimlaneBody=0;strokeColor=inherit;top=0;left=0;bottom=0;right=0;collapsible=0;dropTarget=0;fillColor=none;points=[[0,0.5],[1,0.5]];portConstraint=eastwest;" parent="J758qE4sNnt40KiTb17j-31" vertex="1">
          <mxGeometry y="75" width="210" height="22" as="geometry" />
        </mxCell>
        <mxCell id="J758qE4sNnt40KiTb17j-41" value="FK" style="shape=partialRectangle;html=1;whiteSpace=wrap;connectable=0;strokeColor=#FFFFFF;overflow=hidden;fillColor=#9BFF94;top=0;left=0;bottom=0;right=0;pointerEvents=1;" parent="J758qE4sNnt40KiTb17j-40" vertex="1">
          <mxGeometry width="30" height="22" as="geometry">
            <mxRectangle width="30" height="22" as="alternateBounds" />
          </mxGeometry>
        </mxCell>
        <mxCell id="J758qE4sNnt40KiTb17j-42" value="province_id" style="shape=partialRectangle;html=1;whiteSpace=wrap;connectable=0;strokeColor=#FFFFFF;overflow=hidden;fillColor=#FFFFFF;top=0;left=0;bottom=0;right=0;pointerEvents=1;" parent="J758qE4sNnt40KiTb17j-40" vertex="1">
          <mxGeometry x="30" width="110" height="22" as="geometry">
            <mxRectangle width="110" height="22" as="alternateBounds" />
          </mxGeometry>
        </mxCell>
        <mxCell id="J758qE4sNnt40KiTb17j-43" value="int" style="shape=partialRectangle;html=1;whiteSpace=wrap;connectable=0;strokeColor=#FFFFFF;overflow=hidden;fillColor=#FFFFFF;top=0;left=0;bottom=0;right=0;pointerEvents=1;" parent="J758qE4sNnt40KiTb17j-40" vertex="1">
          <mxGeometry x="140" width="70" height="22" as="geometry">
            <mxRectangle width="70" height="22" as="alternateBounds" />
          </mxGeometry>
        </mxCell>
        <mxCell id="J758qE4sNnt40KiTb17j-44" value="" style="edgeStyle=entityRelationEdgeStyle;fontSize=12;html=1;endArrow=ERoneToMany;rounded=1;entryX=0;entryY=0.5;entryDx=0;entryDy=0;exitX=1;exitY=0.5;exitDx=0;exitDy=0;startArrow=ERone;startFill=0;curved=0;" parent="J758qE4sNnt40KiTb17j-215" source="J758qE4sNnt40KiTb17j-18" target="J758qE4sNnt40KiTb17j-40" edge="1">
          <mxGeometry width="100" height="100" relative="1" as="geometry">
            <mxPoint x="270" y="292" as="sourcePoint" />
            <mxPoint x="336" y="325" as="targetPoint" />
          </mxGeometry>
        </mxCell>
        <mxCell id="J758qE4sNnt40KiTb17j-45" value="ADS DATA" style="shape=table;startSize=30;container=1;collapsible=0;childLayout=tableLayout;fillColor=#66B2FF;" parent="J758qE4sNnt40KiTb17j-215" vertex="1">
          <mxGeometry x="880" y="229" width="210" height="560" as="geometry" />
        </mxCell>
        <mxCell id="J758qE4sNnt40KiTb17j-46" value="" style="shape=tableRow;horizontal=0;startSize=0;swimlaneHead=0;swimlaneBody=0;strokeColor=inherit;top=0;left=0;bottom=0;right=0;collapsible=0;dropTarget=0;fillColor=#9BFF94;points=[[0,0.5],[1,0.5]];portConstraint=eastwest;" parent="J758qE4sNnt40KiTb17j-45" vertex="1">
          <mxGeometry y="30" width="210" height="23" as="geometry" />
        </mxCell>
        <mxCell id="J758qE4sNnt40KiTb17j-47" value="PK" style="shape=partialRectangle;html=1;whiteSpace=wrap;connectable=0;strokeColor=#FFFFFF;overflow=hidden;fillColor=#9BFF94;top=0;left=0;bottom=0;right=0;pointerEvents=1;" parent="J758qE4sNnt40KiTb17j-46" vertex="1">
          <mxGeometry width="30" height="23" as="geometry">
            <mxRectangle width="30" height="23" as="alternateBounds" />
          </mxGeometry>
        </mxCell>
        <mxCell id="J758qE4sNnt40KiTb17j-48" value="ad_id" style="shape=partialRectangle;html=1;whiteSpace=wrap;connectable=0;strokeColor=#000000;overflow=hidden;fillColor=#FFFFFF;top=0;left=0;bottom=0;right=0;pointerEvents=1;" parent="J758qE4sNnt40KiTb17j-46" vertex="1">
          <mxGeometry x="30" width="110" height="23" as="geometry">
            <mxRectangle width="110" height="23" as="alternateBounds" />
          </mxGeometry>
        </mxCell>
        <mxCell id="J758qE4sNnt40KiTb17j-49" value="int" style="shape=partialRectangle;html=1;whiteSpace=wrap;connectable=0;strokeColor=#FFFFFF;overflow=hidden;fillColor=#FFFFFF;top=0;left=0;bottom=0;right=0;pointerEvents=1;" parent="J758qE4sNnt40KiTb17j-46" vertex="1">
          <mxGeometry x="140" width="70" height="23" as="geometry">
            <mxRectangle width="70" height="23" as="alternateBounds" />
          </mxGeometry>
        </mxCell>
        <mxCell id="-vX8YFXZEX_oYzsycdGI-1" style="shape=tableRow;horizontal=0;startSize=0;swimlaneHead=0;swimlaneBody=0;strokeColor=inherit;top=0;left=0;bottom=0;right=0;collapsible=0;dropTarget=0;fillColor=#9BFF94;points=[[0,0.5],[1,0.5]];portConstraint=eastwest;" vertex="1" parent="J758qE4sNnt40KiTb17j-45">
          <mxGeometry y="53" width="210" height="23" as="geometry" />
        </mxCell>
        <mxCell id="-vX8YFXZEX_oYzsycdGI-2" style="shape=partialRectangle;html=1;whiteSpace=wrap;connectable=0;strokeColor=#FFFFFF;overflow=hidden;fillColor=#9BFF94;top=0;left=0;bottom=0;right=0;pointerEvents=1;" vertex="1" parent="-vX8YFXZEX_oYzsycdGI-1">
          <mxGeometry width="30" height="23" as="geometry">
            <mxRectangle width="30" height="23" as="alternateBounds" />
          </mxGeometry>
        </mxCell>
        <mxCell id="-vX8YFXZEX_oYzsycdGI-3" value="page_number" style="shape=partialRectangle;html=1;whiteSpace=wrap;connectable=0;strokeColor=#000000;overflow=hidden;fillColor=#FFFFFF;top=0;left=0;bottom=0;right=0;pointerEvents=1;" vertex="1" parent="-vX8YFXZEX_oYzsycdGI-1">
          <mxGeometry x="30" width="110" height="23" as="geometry">
            <mxRectangle width="110" height="23" as="alternateBounds" />
          </mxGeometry>
        </mxCell>
        <mxCell id="-vX8YFXZEX_oYzsycdGI-4" value="int" style="shape=partialRectangle;html=1;whiteSpace=wrap;connectable=0;strokeColor=#FFFFFF;overflow=hidden;fillColor=#FFFFFF;top=0;left=0;bottom=0;right=0;pointerEvents=1;" vertex="1" parent="-vX8YFXZEX_oYzsycdGI-1">
          <mxGeometry x="140" width="70" height="23" as="geometry">
            <mxRectangle width="70" height="23" as="alternateBounds" />
          </mxGeometry>
        </mxCell>
        <mxCell id="J758qE4sNnt40KiTb17j-50" style="shape=tableRow;horizontal=0;startSize=0;swimlaneHead=0;swimlaneBody=0;strokeColor=inherit;top=0;left=0;bottom=0;right=0;collapsible=0;dropTarget=0;fillColor=none;points=[[0,0.5],[1,0.5]];portConstraint=eastwest;" parent="J758qE4sNnt40KiTb17j-45" vertex="1">
          <mxGeometry y="76" width="210" height="22" as="geometry" />
        </mxCell>
        <mxCell id="J758qE4sNnt40KiTb17j-51" value="" style="shape=partialRectangle;html=1;whiteSpace=wrap;connectable=0;strokeColor=#FFFFFF;overflow=hidden;fillColor=#9BFF94;top=0;left=0;bottom=0;right=0;pointerEvents=1;" parent="J758qE4sNnt40KiTb17j-50" vertex="1">
          <mxGeometry width="30" height="22" as="geometry">
            <mxRectangle width="30" height="22" as="alternateBounds" />
          </mxGeometry>
        </mxCell>
        <mxCell id="J758qE4sNnt40KiTb17j-52" value="price" style="shape=partialRectangle;html=1;whiteSpace=wrap;connectable=0;strokeColor=#FFFFFF;overflow=hidden;fillColor=#FFFFFF;top=0;left=0;bottom=0;right=0;pointerEvents=1;" parent="J758qE4sNnt40KiTb17j-50" vertex="1">
          <mxGeometry x="30" width="110" height="22" as="geometry">
            <mxRectangle width="110" height="22" as="alternateBounds" />
          </mxGeometry>
        </mxCell>
        <mxCell id="J758qE4sNnt40KiTb17j-53" value="int" style="shape=partialRectangle;html=1;whiteSpace=wrap;connectable=0;strokeColor=#FFFFFF;overflow=hidden;fillColor=#FFFFFF;top=0;left=0;bottom=0;right=0;pointerEvents=1;" parent="J758qE4sNnt40KiTb17j-50" vertex="1">
          <mxGeometry x="140" width="70" height="22" as="geometry">
            <mxRectangle width="70" height="22" as="alternateBounds" />
          </mxGeometry>
        </mxCell>
        <mxCell id="J758qE4sNnt40KiTb17j-211" style="shape=tableRow;horizontal=0;startSize=0;swimlaneHead=0;swimlaneBody=0;strokeColor=inherit;top=0;left=0;bottom=0;right=0;collapsible=0;dropTarget=0;fillColor=none;points=[[0,0.5],[1,0.5]];portConstraint=eastwest;" parent="J758qE4sNnt40KiTb17j-45" vertex="1">
          <mxGeometry y="98" width="210" height="22" as="geometry" />
        </mxCell>
        <mxCell id="J758qE4sNnt40KiTb17j-212" style="shape=partialRectangle;html=1;whiteSpace=wrap;connectable=0;strokeColor=#82b366;overflow=hidden;fillColor=#d5e8d4;top=0;left=0;bottom=0;right=0;pointerEvents=1;" parent="J758qE4sNnt40KiTb17j-211" vertex="1">
          <mxGeometry width="30" height="22" as="geometry">
            <mxRectangle width="30" height="22" as="alternateBounds" />
          </mxGeometry>
        </mxCell>
        <mxCell id="J758qE4sNnt40KiTb17j-213" value="surface" style="shape=partialRectangle;html=1;whiteSpace=wrap;connectable=0;strokeColor=#FFFFFF;overflow=hidden;fillColor=#FFFFFF;top=0;left=0;bottom=0;right=0;pointerEvents=1;" parent="J758qE4sNnt40KiTb17j-211" vertex="1">
          <mxGeometry x="30" width="110" height="22" as="geometry">
            <mxRectangle width="110" height="22" as="alternateBounds" />
          </mxGeometry>
        </mxCell>
        <mxCell id="J758qE4sNnt40KiTb17j-214" value="int" style="shape=partialRectangle;html=1;whiteSpace=wrap;connectable=0;strokeColor=#FFFFFF;overflow=hidden;fillColor=#FFFFFF;top=0;left=0;bottom=0;right=0;pointerEvents=1;" parent="J758qE4sNnt40KiTb17j-211" vertex="1">
          <mxGeometry x="140" width="70" height="22" as="geometry">
            <mxRectangle width="70" height="22" as="alternateBounds" />
          </mxGeometry>
        </mxCell>
        <mxCell id="J758qE4sNnt40KiTb17j-54" style="shape=tableRow;horizontal=0;startSize=0;swimlaneHead=0;swimlaneBody=0;strokeColor=inherit;top=0;left=0;bottom=0;right=0;collapsible=0;dropTarget=0;fillColor=none;points=[[0,0.5],[1,0.5]];portConstraint=eastwest;" parent="J758qE4sNnt40KiTb17j-45" vertex="1">
          <mxGeometry y="120" width="210" height="22" as="geometry" />
        </mxCell>
        <mxCell id="J758qE4sNnt40KiTb17j-55" style="shape=partialRectangle;html=1;whiteSpace=wrap;connectable=0;strokeColor=#82b366;overflow=hidden;fillColor=#d5e8d4;top=0;left=0;bottom=0;right=0;pointerEvents=1;" parent="J758qE4sNnt40KiTb17j-54" vertex="1">
          <mxGeometry width="30" height="22" as="geometry">
            <mxRectangle width="30" height="22" as="alternateBounds" />
          </mxGeometry>
        </mxCell>
        <mxCell id="J758qE4sNnt40KiTb17j-56" value="rooms" style="shape=partialRectangle;html=1;whiteSpace=wrap;connectable=0;strokeColor=#FFFFFF;overflow=hidden;fillColor=#FFFFFF;top=0;left=0;bottom=0;right=0;pointerEvents=1;" parent="J758qE4sNnt40KiTb17j-54" vertex="1">
          <mxGeometry x="30" width="110" height="22" as="geometry">
            <mxRectangle width="110" height="22" as="alternateBounds" />
          </mxGeometry>
        </mxCell>
        <mxCell id="J758qE4sNnt40KiTb17j-57" value="int" style="shape=partialRectangle;html=1;whiteSpace=wrap;connectable=0;strokeColor=#FFFFFF;overflow=hidden;fillColor=#FFFFFF;top=0;left=0;bottom=0;right=0;pointerEvents=1;" parent="J758qE4sNnt40KiTb17j-54" vertex="1">
          <mxGeometry x="140" width="70" height="22" as="geometry">
            <mxRectangle width="70" height="22" as="alternateBounds" />
          </mxGeometry>
        </mxCell>
        <mxCell id="J758qE4sNnt40KiTb17j-58" style="shape=tableRow;horizontal=0;startSize=0;swimlaneHead=0;swimlaneBody=0;strokeColor=inherit;top=0;left=0;bottom=0;right=0;collapsible=0;dropTarget=0;fillColor=none;points=[[0,0.5],[1,0.5]];portConstraint=eastwest;" parent="J758qE4sNnt40KiTb17j-45" vertex="1">
          <mxGeometry y="142" width="210" height="22" as="geometry" />
        </mxCell>
        <mxCell id="J758qE4sNnt40KiTb17j-59" value="" style="shape=partialRectangle;html=1;whiteSpace=wrap;connectable=0;strokeColor=#82b366;overflow=hidden;fillColor=#d5e8d4;top=0;left=0;bottom=0;right=0;pointerEvents=1;" parent="J758qE4sNnt40KiTb17j-58" vertex="1">
          <mxGeometry width="30" height="22" as="geometry">
            <mxRectangle width="30" height="22" as="alternateBounds" />
          </mxGeometry>
        </mxCell>
        <mxCell id="J758qE4sNnt40KiTb17j-60" value="bathrooms" style="shape=partialRectangle;html=1;whiteSpace=wrap;connectable=0;strokeColor=#FFFFFF;overflow=hidden;fillColor=#FFFFFF;top=0;left=0;bottom=0;right=0;pointerEvents=1;" parent="J758qE4sNnt40KiTb17j-58" vertex="1">
          <mxGeometry x="30" width="110" height="22" as="geometry">
            <mxRectangle width="110" height="22" as="alternateBounds" />
          </mxGeometry>
        </mxCell>
        <mxCell id="J758qE4sNnt40KiTb17j-61" value="int" style="shape=partialRectangle;html=1;whiteSpace=wrap;connectable=0;strokeColor=#FFFFFF;overflow=hidden;fillColor=#FFFFFF;top=0;left=0;bottom=0;right=0;pointerEvents=1;" parent="J758qE4sNnt40KiTb17j-58" vertex="1">
          <mxGeometry x="140" width="70" height="22" as="geometry">
            <mxRectangle width="70" height="22" as="alternateBounds" />
          </mxGeometry>
        </mxCell>
        <mxCell id="J758qE4sNnt40KiTb17j-62" style="shape=tableRow;horizontal=0;startSize=0;swimlaneHead=0;swimlaneBody=0;strokeColor=inherit;top=0;left=0;bottom=0;right=0;collapsible=0;dropTarget=0;fillColor=none;points=[[0,0.5],[1,0.5]];portConstraint=eastwest;" parent="J758qE4sNnt40KiTb17j-45" vertex="1">
          <mxGeometry y="164" width="210" height="22" as="geometry" />
        </mxCell>
        <mxCell id="J758qE4sNnt40KiTb17j-63" style="shape=partialRectangle;html=1;whiteSpace=wrap;connectable=0;strokeColor=#82b366;overflow=hidden;fillColor=#d5e8d4;top=0;left=0;bottom=0;right=0;pointerEvents=1;" parent="J758qE4sNnt40KiTb17j-62" vertex="1">
          <mxGeometry width="30" height="22" as="geometry">
            <mxRectangle width="30" height="22" as="alternateBounds" />
          </mxGeometry>
        </mxCell>
        <mxCell id="J758qE4sNnt40KiTb17j-64" value="zip_code" style="shape=partialRectangle;html=1;whiteSpace=wrap;connectable=0;strokeColor=#FFFFFF;overflow=hidden;fillColor=#FFFFFF;top=0;left=0;bottom=0;right=0;pointerEvents=1;" parent="J758qE4sNnt40KiTb17j-62" vertex="1">
          <mxGeometry x="30" width="110" height="22" as="geometry">
            <mxRectangle width="110" height="22" as="alternateBounds" />
          </mxGeometry>
        </mxCell>
        <mxCell id="J758qE4sNnt40KiTb17j-65" value="int" style="shape=partialRectangle;html=1;whiteSpace=wrap;connectable=0;strokeColor=#FFFFFF;overflow=hidden;fillColor=#FFFFFF;top=0;left=0;bottom=0;right=0;pointerEvents=1;" parent="J758qE4sNnt40KiTb17j-62" vertex="1">
          <mxGeometry x="140" width="70" height="22" as="geometry">
            <mxRectangle width="70" height="22" as="alternateBounds" />
          </mxGeometry>
        </mxCell>
        <mxCell id="J758qE4sNnt40KiTb17j-66" style="shape=tableRow;horizontal=0;startSize=0;swimlaneHead=0;swimlaneBody=0;strokeColor=inherit;top=0;left=0;bottom=0;right=0;collapsible=0;dropTarget=0;fillColor=none;points=[[0,0.5],[1,0.5]];portConstraint=eastwest;" parent="J758qE4sNnt40KiTb17j-45" vertex="1">
          <mxGeometry y="186" width="210" height="22" as="geometry" />
        </mxCell>
        <mxCell id="J758qE4sNnt40KiTb17j-67" style="shape=partialRectangle;html=1;whiteSpace=wrap;connectable=0;strokeColor=#82b366;overflow=hidden;fillColor=#9BFF94;top=0;left=0;bottom=0;right=0;pointerEvents=1;" parent="J758qE4sNnt40KiTb17j-66" vertex="1">
          <mxGeometry width="30" height="22" as="geometry">
            <mxRectangle width="30" height="22" as="alternateBounds" />
          </mxGeometry>
        </mxCell>
        <mxCell id="J758qE4sNnt40KiTb17j-68" value="location" style="shape=partialRectangle;html=1;whiteSpace=wrap;connectable=0;strokeColor=#FFFFFF;overflow=hidden;fillColor=#FFFFFF;top=0;left=0;bottom=0;right=0;pointerEvents=1;" parent="J758qE4sNnt40KiTb17j-66" vertex="1">
          <mxGeometry x="30" width="110" height="22" as="geometry">
            <mxRectangle width="110" height="22" as="alternateBounds" />
          </mxGeometry>
        </mxCell>
        <mxCell id="J758qE4sNnt40KiTb17j-69" value="geography" style="shape=partialRectangle;html=1;whiteSpace=wrap;connectable=0;strokeColor=#FFFFFF;overflow=hidden;fillColor=#FFFFFF;top=0;left=0;bottom=0;right=0;pointerEvents=1;" parent="J758qE4sNnt40KiTb17j-66" vertex="1">
          <mxGeometry x="140" width="70" height="22" as="geometry">
            <mxRectangle width="70" height="22" as="alternateBounds" />
          </mxGeometry>
        </mxCell>
        <mxCell id="J758qE4sNnt40KiTb17j-70" style="shape=tableRow;horizontal=0;startSize=0;swimlaneHead=0;swimlaneBody=0;strokeColor=inherit;top=0;left=0;bottom=0;right=0;collapsible=0;dropTarget=0;fillColor=none;points=[[0,0.5],[1,0.5]];portConstraint=eastwest;" parent="J758qE4sNnt40KiTb17j-45" vertex="1">
          <mxGeometry y="208" width="210" height="22" as="geometry" />
        </mxCell>
        <mxCell id="J758qE4sNnt40KiTb17j-71" style="shape=partialRectangle;html=1;whiteSpace=wrap;connectable=0;strokeColor=#82b366;overflow=hidden;fillColor=#d5e8d4;top=0;left=0;bottom=0;right=0;pointerEvents=1;" parent="J758qE4sNnt40KiTb17j-70" vertex="1">
          <mxGeometry width="30" height="22" as="geometry">
            <mxRectangle width="30" height="22" as="alternateBounds" />
          </mxGeometry>
        </mxCell>
        <mxCell id="J758qE4sNnt40KiTb17j-72" value="conservation_status&lt;span style=&quot;white-space: pre;&quot;&gt;&#x9;&lt;/span&gt;" style="shape=partialRectangle;html=1;whiteSpace=wrap;connectable=0;strokeColor=#FFFFFF;overflow=hidden;fillColor=#FFFFFF;top=0;left=0;bottom=0;right=0;pointerEvents=1;" parent="J758qE4sNnt40KiTb17j-70" vertex="1">
          <mxGeometry x="30" width="110" height="22" as="geometry">
            <mxRectangle width="110" height="22" as="alternateBounds" />
          </mxGeometry>
        </mxCell>
        <mxCell id="J758qE4sNnt40KiTb17j-73" value="int" style="shape=partialRectangle;html=1;whiteSpace=wrap;connectable=0;strokeColor=#FFFFFF;overflow=hidden;fillColor=#FFFFFF;top=0;left=0;bottom=0;right=0;pointerEvents=1;" parent="J758qE4sNnt40KiTb17j-70" vertex="1">
          <mxGeometry x="140" width="70" height="22" as="geometry">
            <mxRectangle width="70" height="22" as="alternateBounds" />
          </mxGeometry>
        </mxCell>
        <mxCell id="J758qE4sNnt40KiTb17j-74" style="shape=tableRow;horizontal=0;startSize=0;swimlaneHead=0;swimlaneBody=0;strokeColor=inherit;top=0;left=0;bottom=0;right=0;collapsible=0;dropTarget=0;fillColor=none;points=[[0,0.5],[1,0.5]];portConstraint=eastwest;" parent="J758qE4sNnt40KiTb17j-45" vertex="1">
          <mxGeometry y="230" width="210" height="22" as="geometry" />
        </mxCell>
        <mxCell id="J758qE4sNnt40KiTb17j-75" style="shape=partialRectangle;html=1;whiteSpace=wrap;connectable=0;strokeColor=#82b366;overflow=hidden;fillColor=#d5e8d4;top=0;left=0;bottom=0;right=0;pointerEvents=1;" parent="J758qE4sNnt40KiTb17j-74" vertex="1">
          <mxGeometry width="30" height="22" as="geometry">
            <mxRectangle width="30" height="22" as="alternateBounds" />
          </mxGeometry>
        </mxCell>
        <mxCell id="J758qE4sNnt40KiTb17j-76" value="antiquity" style="shape=partialRectangle;html=1;whiteSpace=wrap;connectable=0;strokeColor=#FFFFFF;overflow=hidden;fillColor=#FFFFFF;top=0;left=0;bottom=0;right=0;pointerEvents=1;" parent="J758qE4sNnt40KiTb17j-74" vertex="1">
          <mxGeometry x="30" width="110" height="22" as="geometry">
            <mxRectangle width="110" height="22" as="alternateBounds" />
          </mxGeometry>
        </mxCell>
        <mxCell id="J758qE4sNnt40KiTb17j-77" value="int" style="shape=partialRectangle;html=1;whiteSpace=wrap;connectable=0;strokeColor=#FFFFFF;overflow=hidden;fillColor=#FFFFFF;top=0;left=0;bottom=0;right=0;pointerEvents=1;" parent="J758qE4sNnt40KiTb17j-74" vertex="1">
          <mxGeometry x="140" width="70" height="22" as="geometry">
            <mxRectangle width="70" height="22" as="alternateBounds" />
          </mxGeometry>
        </mxCell>
        <mxCell id="J758qE4sNnt40KiTb17j-78" style="shape=tableRow;horizontal=0;startSize=0;swimlaneHead=0;swimlaneBody=0;strokeColor=inherit;top=0;left=0;bottom=0;right=0;collapsible=0;dropTarget=0;fillColor=none;points=[[0,0.5],[1,0.5]];portConstraint=eastwest;" parent="J758qE4sNnt40KiTb17j-45" vertex="1">
          <mxGeometry y="252" width="210" height="22" as="geometry" />
        </mxCell>
        <mxCell id="J758qE4sNnt40KiTb17j-79" style="shape=partialRectangle;html=1;whiteSpace=wrap;connectable=0;strokeColor=#82b366;overflow=hidden;fillColor=#d5e8d4;top=0;left=0;bottom=0;right=0;pointerEvents=1;" parent="J758qE4sNnt40KiTb17j-78" vertex="1">
          <mxGeometry width="30" height="22" as="geometry">
            <mxRectangle width="30" height="22" as="alternateBounds" />
          </mxGeometry>
        </mxCell>
        <mxCell id="J758qE4sNnt40KiTb17j-80" value="floor_type" style="shape=partialRectangle;html=1;whiteSpace=wrap;connectable=0;strokeColor=#FFFFFF;overflow=hidden;fillColor=#FFFFFF;top=0;left=0;bottom=0;right=0;pointerEvents=1;" parent="J758qE4sNnt40KiTb17j-78" vertex="1">
          <mxGeometry x="30" width="110" height="22" as="geometry">
            <mxRectangle width="110" height="22" as="alternateBounds" />
          </mxGeometry>
        </mxCell>
        <mxCell id="J758qE4sNnt40KiTb17j-81" value="int" style="shape=partialRectangle;html=1;whiteSpace=wrap;connectable=0;strokeColor=#FFFFFF;overflow=hidden;fillColor=#FFFFFF;top=0;left=0;bottom=0;right=0;pointerEvents=1;" parent="J758qE4sNnt40KiTb17j-78" vertex="1">
          <mxGeometry x="140" width="70" height="22" as="geometry">
            <mxRectangle width="70" height="22" as="alternateBounds" />
          </mxGeometry>
        </mxCell>
        <mxCell id="J758qE4sNnt40KiTb17j-82" style="shape=tableRow;horizontal=0;startSize=0;swimlaneHead=0;swimlaneBody=0;strokeColor=inherit;top=0;left=0;bottom=0;right=0;collapsible=0;dropTarget=0;fillColor=none;points=[[0,0.5],[1,0.5]];portConstraint=eastwest;" parent="J758qE4sNnt40KiTb17j-45" vertex="1">
          <mxGeometry y="274" width="210" height="22" as="geometry" />
        </mxCell>
        <mxCell id="J758qE4sNnt40KiTb17j-83" style="shape=partialRectangle;html=1;whiteSpace=wrap;connectable=0;strokeColor=#82b366;overflow=hidden;fillColor=#d5e8d4;top=0;left=0;bottom=0;right=0;pointerEvents=1;" parent="J758qE4sNnt40KiTb17j-82" vertex="1">
          <mxGeometry width="30" height="22" as="geometry">
            <mxRectangle width="30" height="22" as="alternateBounds" />
          </mxGeometry>
        </mxCell>
        <mxCell id="J758qE4sNnt40KiTb17j-84" value="orientation" style="shape=partialRectangle;html=1;whiteSpace=wrap;connectable=0;strokeColor=#FFFFFF;overflow=hidden;fillColor=#FFFFFF;top=0;left=0;bottom=0;right=0;pointerEvents=1;" parent="J758qE4sNnt40KiTb17j-82" vertex="1">
          <mxGeometry x="30" width="110" height="22" as="geometry">
            <mxRectangle width="110" height="22" as="alternateBounds" />
          </mxGeometry>
        </mxCell>
        <mxCell id="J758qE4sNnt40KiTb17j-85" value="int" style="shape=partialRectangle;html=1;whiteSpace=wrap;connectable=0;strokeColor=#FFFFFF;overflow=hidden;fillColor=#FFFFFF;top=0;left=0;bottom=0;right=0;pointerEvents=1;" parent="J758qE4sNnt40KiTb17j-82" vertex="1">
          <mxGeometry x="140" width="70" height="22" as="geometry">
            <mxRectangle width="70" height="22" as="alternateBounds" />
          </mxGeometry>
        </mxCell>
        <mxCell id="J758qE4sNnt40KiTb17j-86" style="shape=tableRow;horizontal=0;startSize=0;swimlaneHead=0;swimlaneBody=0;strokeColor=inherit;top=0;left=0;bottom=0;right=0;collapsible=0;dropTarget=0;fillColor=none;points=[[0,0.5],[1,0.5]];portConstraint=eastwest;" parent="J758qE4sNnt40KiTb17j-45" vertex="1">
          <mxGeometry y="296" width="210" height="22" as="geometry" />
        </mxCell>
        <mxCell id="J758qE4sNnt40KiTb17j-87" style="shape=partialRectangle;html=1;whiteSpace=wrap;connectable=0;strokeColor=#82b366;overflow=hidden;fillColor=#d5e8d4;top=0;left=0;bottom=0;right=0;pointerEvents=1;" parent="J758qE4sNnt40KiTb17j-86" vertex="1">
          <mxGeometry width="30" height="22" as="geometry">
            <mxRectangle width="30" height="22" as="alternateBounds" />
          </mxGeometry>
        </mxCell>
        <mxCell id="J758qE4sNnt40KiTb17j-88" value="terrace" style="shape=partialRectangle;html=1;whiteSpace=wrap;connectable=0;strokeColor=#FFFFFF;overflow=hidden;fillColor=#FFFFFF;top=0;left=0;bottom=0;right=0;pointerEvents=1;" parent="J758qE4sNnt40KiTb17j-86" vertex="1">
          <mxGeometry x="30" width="110" height="22" as="geometry">
            <mxRectangle width="110" height="22" as="alternateBounds" />
          </mxGeometry>
        </mxCell>
        <mxCell id="J758qE4sNnt40KiTb17j-89" value="bool" style="shape=partialRectangle;html=1;whiteSpace=wrap;connectable=0;strokeColor=#FFFFFF;overflow=hidden;fillColor=#FFFFFF;top=0;left=0;bottom=0;right=0;pointerEvents=1;" parent="J758qE4sNnt40KiTb17j-86" vertex="1">
          <mxGeometry x="140" width="70" height="22" as="geometry">
            <mxRectangle width="70" height="22" as="alternateBounds" />
          </mxGeometry>
        </mxCell>
        <mxCell id="J758qE4sNnt40KiTb17j-94" style="shape=tableRow;horizontal=0;startSize=0;swimlaneHead=0;swimlaneBody=0;strokeColor=inherit;top=0;left=0;bottom=0;right=0;collapsible=0;dropTarget=0;fillColor=none;points=[[0,0.5],[1,0.5]];portConstraint=eastwest;" parent="J758qE4sNnt40KiTb17j-45" vertex="1">
          <mxGeometry y="318" width="210" height="22" as="geometry" />
        </mxCell>
        <mxCell id="J758qE4sNnt40KiTb17j-95" style="shape=partialRectangle;html=1;whiteSpace=wrap;connectable=0;strokeColor=#82b366;overflow=hidden;fillColor=#d5e8d4;top=0;left=0;bottom=0;right=0;pointerEvents=1;" parent="J758qE4sNnt40KiTb17j-94" vertex="1">
          <mxGeometry width="30" height="22" as="geometry">
            <mxRectangle width="30" height="22" as="alternateBounds" />
          </mxGeometry>
        </mxCell>
        <mxCell id="J758qE4sNnt40KiTb17j-96" value="parking" style="shape=partialRectangle;html=1;whiteSpace=wrap;connectable=0;strokeColor=#FFFFFF;overflow=hidden;fillColor=#FFFFFF;top=0;left=0;bottom=0;right=0;pointerEvents=1;" parent="J758qE4sNnt40KiTb17j-94" vertex="1">
          <mxGeometry x="30" width="110" height="22" as="geometry">
            <mxRectangle width="110" height="22" as="alternateBounds" />
          </mxGeometry>
        </mxCell>
        <mxCell id="J758qE4sNnt40KiTb17j-97" value="bool" style="shape=partialRectangle;html=1;whiteSpace=wrap;connectable=0;strokeColor=#FFFFFF;overflow=hidden;fillColor=#FFFFFF;top=0;left=0;bottom=0;right=0;pointerEvents=1;" parent="J758qE4sNnt40KiTb17j-94" vertex="1">
          <mxGeometry x="140" width="70" height="22" as="geometry">
            <mxRectangle width="70" height="22" as="alternateBounds" />
          </mxGeometry>
        </mxCell>
        <mxCell id="J758qE4sNnt40KiTb17j-98" style="shape=tableRow;horizontal=0;startSize=0;swimlaneHead=0;swimlaneBody=0;strokeColor=inherit;top=0;left=0;bottom=0;right=0;collapsible=0;dropTarget=0;fillColor=none;points=[[0,0.5],[1,0.5]];portConstraint=eastwest;" parent="J758qE4sNnt40KiTb17j-45" vertex="1">
          <mxGeometry y="340" width="210" height="22" as="geometry" />
        </mxCell>
        <mxCell id="J758qE4sNnt40KiTb17j-99" style="shape=partialRectangle;html=1;whiteSpace=wrap;connectable=0;strokeColor=#82b366;overflow=hidden;fillColor=#d5e8d4;top=0;left=0;bottom=0;right=0;pointerEvents=1;" parent="J758qE4sNnt40KiTb17j-98" vertex="1">
          <mxGeometry width="30" height="22" as="geometry">
            <mxRectangle width="30" height="22" as="alternateBounds" />
          </mxGeometry>
        </mxCell>
        <mxCell id="J758qE4sNnt40KiTb17j-100" value="elevator" style="shape=partialRectangle;html=1;whiteSpace=wrap;connectable=0;strokeColor=#FFFFFF;overflow=hidden;fillColor=#FFFFFF;top=0;left=0;bottom=0;right=0;pointerEvents=1;" parent="J758qE4sNnt40KiTb17j-98" vertex="1">
          <mxGeometry x="30" width="110" height="22" as="geometry">
            <mxRectangle width="110" height="22" as="alternateBounds" />
          </mxGeometry>
        </mxCell>
        <mxCell id="J758qE4sNnt40KiTb17j-101" value="bool" style="shape=partialRectangle;html=1;whiteSpace=wrap;connectable=0;strokeColor=#FFFFFF;overflow=hidden;fillColor=#FFFFFF;top=0;left=0;bottom=0;right=0;pointerEvents=1;" parent="J758qE4sNnt40KiTb17j-98" vertex="1">
          <mxGeometry x="140" width="70" height="22" as="geometry">
            <mxRectangle width="70" height="22" as="alternateBounds" />
          </mxGeometry>
        </mxCell>
        <mxCell id="J758qE4sNnt40KiTb17j-102" style="shape=tableRow;horizontal=0;startSize=0;swimlaneHead=0;swimlaneBody=0;strokeColor=inherit;top=0;left=0;bottom=0;right=0;collapsible=0;dropTarget=0;fillColor=none;points=[[0,0.5],[1,0.5]];portConstraint=eastwest;" parent="J758qE4sNnt40KiTb17j-45" vertex="1">
          <mxGeometry y="362" width="210" height="22" as="geometry" />
        </mxCell>
        <mxCell id="J758qE4sNnt40KiTb17j-103" style="shape=partialRectangle;html=1;whiteSpace=wrap;connectable=0;strokeColor=#82b366;overflow=hidden;fillColor=#d5e8d4;top=0;left=0;bottom=0;right=0;pointerEvents=1;" parent="J758qE4sNnt40KiTb17j-102" vertex="1">
          <mxGeometry width="30" height="22" as="geometry">
            <mxRectangle width="30" height="22" as="alternateBounds" />
          </mxGeometry>
        </mxCell>
        <mxCell id="J758qE4sNnt40KiTb17j-104" value="swimming_pool" style="shape=partialRectangle;html=1;whiteSpace=wrap;connectable=0;strokeColor=#FFFFFF;overflow=hidden;fillColor=#FFFFFF;top=0;left=0;bottom=0;right=0;pointerEvents=1;" parent="J758qE4sNnt40KiTb17j-102" vertex="1">
          <mxGeometry x="30" width="110" height="22" as="geometry">
            <mxRectangle width="110" height="22" as="alternateBounds" />
          </mxGeometry>
        </mxCell>
        <mxCell id="J758qE4sNnt40KiTb17j-105" value="bool" style="shape=partialRectangle;html=1;whiteSpace=wrap;connectable=0;strokeColor=#FFFFFF;overflow=hidden;fillColor=#FFFFFF;top=0;left=0;bottom=0;right=0;pointerEvents=1;" parent="J758qE4sNnt40KiTb17j-102" vertex="1">
          <mxGeometry x="140" width="70" height="22" as="geometry">
            <mxRectangle width="70" height="22" as="alternateBounds" />
          </mxGeometry>
        </mxCell>
        <mxCell id="J758qE4sNnt40KiTb17j-106" style="shape=tableRow;horizontal=0;startSize=0;swimlaneHead=0;swimlaneBody=0;strokeColor=inherit;top=0;left=0;bottom=0;right=0;collapsible=0;dropTarget=0;fillColor=none;points=[[0,0.5],[1,0.5]];portConstraint=eastwest;" parent="J758qE4sNnt40KiTb17j-45" vertex="1">
          <mxGeometry y="384" width="210" height="22" as="geometry" />
        </mxCell>
        <mxCell id="J758qE4sNnt40KiTb17j-107" style="shape=partialRectangle;html=1;whiteSpace=wrap;connectable=0;strokeColor=#82b366;overflow=hidden;fillColor=#d5e8d4;top=0;left=0;bottom=0;right=0;pointerEvents=1;" parent="J758qE4sNnt40KiTb17j-106" vertex="1">
          <mxGeometry width="30" height="22" as="geometry">
            <mxRectangle width="30" height="22" as="alternateBounds" />
          </mxGeometry>
        </mxCell>
        <mxCell id="J758qE4sNnt40KiTb17j-108" value="garden" style="shape=partialRectangle;html=1;whiteSpace=wrap;connectable=0;strokeColor=#FFFFFF;overflow=hidden;fillColor=#FFFFFF;top=0;left=0;bottom=0;right=0;pointerEvents=1;" parent="J758qE4sNnt40KiTb17j-106" vertex="1">
          <mxGeometry x="30" width="110" height="22" as="geometry">
            <mxRectangle width="110" height="22" as="alternateBounds" />
          </mxGeometry>
        </mxCell>
        <mxCell id="J758qE4sNnt40KiTb17j-109" value="bool" style="shape=partialRectangle;html=1;whiteSpace=wrap;connectable=0;strokeColor=#FFFFFF;overflow=hidden;fillColor=#FFFFFF;top=0;left=0;bottom=0;right=0;pointerEvents=1;" parent="J758qE4sNnt40KiTb17j-106" vertex="1">
          <mxGeometry x="140" width="70" height="22" as="geometry">
            <mxRectangle width="70" height="22" as="alternateBounds" />
          </mxGeometry>
        </mxCell>
        <mxCell id="J758qE4sNnt40KiTb17j-110" style="shape=tableRow;horizontal=0;startSize=0;swimlaneHead=0;swimlaneBody=0;strokeColor=inherit;top=0;left=0;bottom=0;right=0;collapsible=0;dropTarget=0;fillColor=none;points=[[0,0.5],[1,0.5]];portConstraint=eastwest;" parent="J758qE4sNnt40KiTb17j-45" vertex="1">
          <mxGeometry y="406" width="210" height="22" as="geometry" />
        </mxCell>
        <mxCell id="J758qE4sNnt40KiTb17j-111" style="shape=partialRectangle;html=1;whiteSpace=wrap;connectable=0;strokeColor=#82b366;overflow=hidden;fillColor=#d5e8d4;top=0;left=0;bottom=0;right=0;pointerEvents=1;" parent="J758qE4sNnt40KiTb17j-110" vertex="1">
          <mxGeometry width="30" height="22" as="geometry">
            <mxRectangle width="30" height="22" as="alternateBounds" />
          </mxGeometry>
        </mxCell>
        <mxCell id="J758qE4sNnt40KiTb17j-112" value="air_conditioner" style="shape=partialRectangle;html=1;whiteSpace=wrap;connectable=0;strokeColor=#FFFFFF;overflow=hidden;fillColor=#FFFFFF;top=0;left=0;bottom=0;right=0;pointerEvents=1;" parent="J758qE4sNnt40KiTb17j-110" vertex="1">
          <mxGeometry x="30" width="110" height="22" as="geometry">
            <mxRectangle width="110" height="22" as="alternateBounds" />
          </mxGeometry>
        </mxCell>
        <mxCell id="J758qE4sNnt40KiTb17j-113" value="bool" style="shape=partialRectangle;html=1;whiteSpace=wrap;connectable=0;strokeColor=#FFFFFF;overflow=hidden;fillColor=#FFFFFF;top=0;left=0;bottom=0;right=0;pointerEvents=1;" parent="J758qE4sNnt40KiTb17j-110" vertex="1">
          <mxGeometry x="140" width="70" height="22" as="geometry">
            <mxRectangle width="70" height="22" as="alternateBounds" />
          </mxGeometry>
        </mxCell>
        <mxCell id="J758qE4sNnt40KiTb17j-114" style="shape=tableRow;horizontal=0;startSize=0;swimlaneHead=0;swimlaneBody=0;strokeColor=inherit;top=0;left=0;bottom=0;right=0;collapsible=0;dropTarget=0;fillColor=none;points=[[0,0.5],[1,0.5]];portConstraint=eastwest;" parent="J758qE4sNnt40KiTb17j-45" vertex="1">
          <mxGeometry y="428" width="210" height="22" as="geometry" />
        </mxCell>
        <mxCell id="J758qE4sNnt40KiTb17j-115" style="shape=partialRectangle;html=1;whiteSpace=wrap;connectable=0;strokeColor=#82b366;overflow=hidden;fillColor=#d5e8d4;top=0;left=0;bottom=0;right=0;pointerEvents=1;" parent="J758qE4sNnt40KiTb17j-114" vertex="1">
          <mxGeometry width="30" height="22" as="geometry">
            <mxRectangle width="30" height="22" as="alternateBounds" />
          </mxGeometry>
        </mxCell>
        <mxCell id="J758qE4sNnt40KiTb17j-116" value="heater" style="shape=partialRectangle;html=1;whiteSpace=wrap;connectable=0;strokeColor=#FFFFFF;overflow=hidden;fillColor=#FFFFFF;top=0;left=0;bottom=0;right=0;pointerEvents=1;" parent="J758qE4sNnt40KiTb17j-114" vertex="1">
          <mxGeometry x="30" width="110" height="22" as="geometry">
            <mxRectangle width="110" height="22" as="alternateBounds" />
          </mxGeometry>
        </mxCell>
        <mxCell id="J758qE4sNnt40KiTb17j-117" value="bool" style="shape=partialRectangle;html=1;whiteSpace=wrap;connectable=0;strokeColor=#FFFFFF;overflow=hidden;fillColor=#FFFFFF;top=0;left=0;bottom=0;right=0;pointerEvents=1;" parent="J758qE4sNnt40KiTb17j-114" vertex="1">
          <mxGeometry x="140" width="70" height="22" as="geometry">
            <mxRectangle width="70" height="22" as="alternateBounds" />
          </mxGeometry>
        </mxCell>
        <mxCell id="J758qE4sNnt40KiTb17j-118" style="shape=tableRow;horizontal=0;startSize=0;swimlaneHead=0;swimlaneBody=0;strokeColor=inherit;top=0;left=0;bottom=0;right=0;collapsible=0;dropTarget=0;fillColor=none;points=[[0,0.5],[1,0.5]];portConstraint=eastwest;" parent="J758qE4sNnt40KiTb17j-45" vertex="1">
          <mxGeometry y="450" width="210" height="22" as="geometry" />
        </mxCell>
        <mxCell id="J758qE4sNnt40KiTb17j-119" style="shape=partialRectangle;html=1;whiteSpace=wrap;connectable=0;strokeColor=#82b366;overflow=hidden;fillColor=#d5e8d4;top=0;left=0;bottom=0;right=0;pointerEvents=1;" parent="J758qE4sNnt40KiTb17j-118" vertex="1">
          <mxGeometry width="30" height="22" as="geometry">
            <mxRectangle width="30" height="22" as="alternateBounds" />
          </mxGeometry>
        </mxCell>
        <mxCell id="J758qE4sNnt40KiTb17j-120" value="balcony" style="shape=partialRectangle;html=1;whiteSpace=wrap;connectable=0;strokeColor=#FFFFFF;overflow=hidden;fillColor=#FFFFFF;top=0;left=0;bottom=0;right=0;pointerEvents=1;" parent="J758qE4sNnt40KiTb17j-118" vertex="1">
          <mxGeometry x="30" width="110" height="22" as="geometry">
            <mxRectangle width="110" height="22" as="alternateBounds" />
          </mxGeometry>
        </mxCell>
        <mxCell id="J758qE4sNnt40KiTb17j-121" value="bool" style="shape=partialRectangle;html=1;whiteSpace=wrap;connectable=0;strokeColor=#FFFFFF;overflow=hidden;fillColor=#FFFFFF;top=0;left=0;bottom=0;right=0;pointerEvents=1;" parent="J758qE4sNnt40KiTb17j-118" vertex="1">
          <mxGeometry x="140" width="70" height="22" as="geometry">
            <mxRectangle width="70" height="22" as="alternateBounds" />
          </mxGeometry>
        </mxCell>
        <mxCell id="J758qE4sNnt40KiTb17j-122" style="shape=tableRow;horizontal=0;startSize=0;swimlaneHead=0;swimlaneBody=0;strokeColor=inherit;top=0;left=0;bottom=0;right=0;collapsible=0;dropTarget=0;fillColor=none;points=[[0,0.5],[1,0.5]];portConstraint=eastwest;" parent="J758qE4sNnt40KiTb17j-45" vertex="1">
          <mxGeometry y="472" width="210" height="22" as="geometry" />
        </mxCell>
        <mxCell id="J758qE4sNnt40KiTb17j-123" style="shape=partialRectangle;html=1;whiteSpace=wrap;connectable=0;strokeColor=#82b366;overflow=hidden;fillColor=#d5e8d4;top=0;left=0;bottom=0;right=0;pointerEvents=1;" parent="J758qE4sNnt40KiTb17j-122" vertex="1">
          <mxGeometry width="30" height="22" as="geometry">
            <mxRectangle width="30" height="22" as="alternateBounds" />
          </mxGeometry>
        </mxCell>
        <mxCell id="J758qE4sNnt40KiTb17j-124" value="bus_distance" style="shape=partialRectangle;html=1;whiteSpace=wrap;connectable=0;strokeColor=#FFFFFF;overflow=hidden;fillColor=#FFFFFF;top=0;left=0;bottom=0;right=0;pointerEvents=1;" parent="J758qE4sNnt40KiTb17j-122" vertex="1">
          <mxGeometry x="30" width="110" height="22" as="geometry">
            <mxRectangle width="110" height="22" as="alternateBounds" />
          </mxGeometry>
        </mxCell>
        <mxCell id="J758qE4sNnt40KiTb17j-125" value="float" style="shape=partialRectangle;html=1;whiteSpace=wrap;connectable=0;strokeColor=#FFFFFF;overflow=hidden;fillColor=#FFFFFF;top=0;left=0;bottom=0;right=0;pointerEvents=1;" parent="J758qE4sNnt40KiTb17j-122" vertex="1">
          <mxGeometry x="140" width="70" height="22" as="geometry">
            <mxRectangle width="70" height="22" as="alternateBounds" />
          </mxGeometry>
        </mxCell>
        <mxCell id="J758qE4sNnt40KiTb17j-126" style="shape=tableRow;horizontal=0;startSize=0;swimlaneHead=0;swimlaneBody=0;strokeColor=inherit;top=0;left=0;bottom=0;right=0;collapsible=0;dropTarget=0;fillColor=none;points=[[0,0.5],[1,0.5]];portConstraint=eastwest;" parent="J758qE4sNnt40KiTb17j-45" vertex="1">
          <mxGeometry y="494" width="210" height="22" as="geometry" />
        </mxCell>
        <mxCell id="J758qE4sNnt40KiTb17j-127" style="shape=partialRectangle;html=1;whiteSpace=wrap;connectable=0;strokeColor=#82b366;overflow=hidden;fillColor=#d5e8d4;top=0;left=0;bottom=0;right=0;pointerEvents=1;" parent="J758qE4sNnt40KiTb17j-126" vertex="1">
          <mxGeometry width="30" height="22" as="geometry">
            <mxRectangle width="30" height="22" as="alternateBounds" />
          </mxGeometry>
        </mxCell>
        <mxCell id="J758qE4sNnt40KiTb17j-128" value="train_distance" style="shape=partialRectangle;html=1;whiteSpace=wrap;connectable=0;strokeColor=#FFFFFF;overflow=hidden;fillColor=#FFFFFF;top=0;left=0;bottom=0;right=0;pointerEvents=1;" parent="J758qE4sNnt40KiTb17j-126" vertex="1">
          <mxGeometry x="30" width="110" height="22" as="geometry">
            <mxRectangle width="110" height="22" as="alternateBounds" />
          </mxGeometry>
        </mxCell>
        <mxCell id="J758qE4sNnt40KiTb17j-129" value="float" style="shape=partialRectangle;html=1;whiteSpace=wrap;connectable=0;strokeColor=#FFFFFF;overflow=hidden;fillColor=#FFFFFF;top=0;left=0;bottom=0;right=0;pointerEvents=1;" parent="J758qE4sNnt40KiTb17j-126" vertex="1">
          <mxGeometry x="140" width="70" height="22" as="geometry">
            <mxRectangle width="70" height="22" as="alternateBounds" />
          </mxGeometry>
        </mxCell>
        <mxCell id="J758qE4sNnt40KiTb17j-130" style="shape=tableRow;horizontal=0;startSize=0;swimlaneHead=0;swimlaneBody=0;strokeColor=inherit;top=0;left=0;bottom=0;right=0;collapsible=0;dropTarget=0;fillColor=none;points=[[0,0.5],[1,0.5]];portConstraint=eastwest;" parent="J758qE4sNnt40KiTb17j-45" vertex="1">
          <mxGeometry y="516" width="210" height="22" as="geometry" />
        </mxCell>
        <mxCell id="J758qE4sNnt40KiTb17j-131" style="shape=partialRectangle;html=1;whiteSpace=wrap;connectable=0;strokeColor=#82b366;overflow=hidden;fillColor=#d5e8d4;top=0;left=0;bottom=0;right=0;pointerEvents=1;" parent="J758qE4sNnt40KiTb17j-130" vertex="1">
          <mxGeometry width="30" height="22" as="geometry">
            <mxRectangle width="30" height="22" as="alternateBounds" />
          </mxGeometry>
        </mxCell>
        <mxCell id="J758qE4sNnt40KiTb17j-132" value="tram_distance" style="shape=partialRectangle;html=1;whiteSpace=wrap;connectable=0;strokeColor=#FFFFFF;overflow=hidden;fillColor=#FFFFFF;top=0;left=0;bottom=0;right=0;pointerEvents=1;" parent="J758qE4sNnt40KiTb17j-130" vertex="1">
          <mxGeometry x="30" width="110" height="22" as="geometry">
            <mxRectangle width="110" height="22" as="alternateBounds" />
          </mxGeometry>
        </mxCell>
        <mxCell id="J758qE4sNnt40KiTb17j-133" value="float" style="shape=partialRectangle;html=1;whiteSpace=wrap;connectable=0;strokeColor=#FFFFFF;overflow=hidden;fillColor=#FFFFFF;top=0;left=0;bottom=0;right=0;pointerEvents=1;" parent="J758qE4sNnt40KiTb17j-130" vertex="1">
          <mxGeometry x="140" width="70" height="22" as="geometry">
            <mxRectangle width="70" height="22" as="alternateBounds" />
          </mxGeometry>
        </mxCell>
        <mxCell id="J758qE4sNnt40KiTb17j-134" style="shape=tableRow;horizontal=0;startSize=0;swimlaneHead=0;swimlaneBody=0;strokeColor=inherit;top=0;left=0;bottom=0;right=0;collapsible=0;dropTarget=0;fillColor=none;points=[[0,0.5],[1,0.5]];portConstraint=eastwest;" parent="J758qE4sNnt40KiTb17j-45" vertex="1">
          <mxGeometry y="538" width="210" height="22" as="geometry" />
        </mxCell>
        <mxCell id="J758qE4sNnt40KiTb17j-135" style="shape=partialRectangle;html=1;whiteSpace=wrap;connectable=0;strokeColor=#82b366;overflow=hidden;fillColor=#9BFF94;top=0;left=0;bottom=0;right=0;pointerEvents=1;" parent="J758qE4sNnt40KiTb17j-134" vertex="1">
          <mxGeometry width="30" height="22" as="geometry">
            <mxRectangle width="30" height="22" as="alternateBounds" />
          </mxGeometry>
        </mxCell>
        <mxCell id="J758qE4sNnt40KiTb17j-136" value="city_id" style="shape=partialRectangle;html=1;whiteSpace=wrap;connectable=0;strokeColor=#FFFFFF;overflow=hidden;fillColor=#FFFFFF;top=0;left=0;bottom=0;right=0;pointerEvents=1;" parent="J758qE4sNnt40KiTb17j-134" vertex="1">
          <mxGeometry x="30" width="110" height="22" as="geometry">
            <mxRectangle width="110" height="22" as="alternateBounds" />
          </mxGeometry>
        </mxCell>
        <mxCell id="J758qE4sNnt40KiTb17j-137" value="int" style="shape=partialRectangle;html=1;whiteSpace=wrap;connectable=0;strokeColor=#FFFFFF;overflow=hidden;fillColor=#FFFFFF;top=0;left=0;bottom=0;right=0;pointerEvents=1;" parent="J758qE4sNnt40KiTb17j-134" vertex="1">
          <mxGeometry x="140" width="70" height="22" as="geometry">
            <mxRectangle width="70" height="22" as="alternateBounds" />
          </mxGeometry>
        </mxCell>
        <mxCell id="J758qE4sNnt40KiTb17j-138" value="" style="edgeStyle=entityRelationEdgeStyle;fontSize=12;html=1;endArrow=ERoneToMany;rounded=1;exitX=1;exitY=0.5;exitDx=0;exitDy=0;startArrow=ERone;startFill=0;curved=0;entryX=0;entryY=0.5;entryDx=0;entryDy=0;" parent="J758qE4sNnt40KiTb17j-215" source="J758qE4sNnt40KiTb17j-32" target="J758qE4sNnt40KiTb17j-134" edge="1">
          <mxGeometry width="100" height="100" relative="1" as="geometry">
            <mxPoint x="666" y="420" as="sourcePoint" />
            <mxPoint x="736" y="464" as="targetPoint" />
          </mxGeometry>
        </mxCell>
        <mxCell id="J758qE4sNnt40KiTb17j-152" value="VARIABLES" style="shape=table;startSize=30;container=1;collapsible=0;childLayout=tableLayout;fillColor=#66B2FF;" parent="J758qE4sNnt40KiTb17j-215" vertex="1">
          <mxGeometry x="606" y="30" width="210" height="97" as="geometry" />
        </mxCell>
        <mxCell id="J758qE4sNnt40KiTb17j-153" value="" style="shape=tableRow;horizontal=0;startSize=0;swimlaneHead=0;swimlaneBody=0;strokeColor=inherit;top=0;left=0;bottom=0;right=0;collapsible=0;dropTarget=0;fillColor=#9BFF94;points=[[0,0.5],[1,0.5]];portConstraint=eastwest;" parent="J758qE4sNnt40KiTb17j-152" vertex="1">
          <mxGeometry y="30" width="210" height="23" as="geometry" />
        </mxCell>
        <mxCell id="J758qE4sNnt40KiTb17j-154" value="PK" style="shape=partialRectangle;html=1;whiteSpace=wrap;connectable=0;strokeColor=#FFFFFF;overflow=hidden;fillColor=#9BFF94;top=0;left=0;bottom=0;right=0;pointerEvents=1;" parent="J758qE4sNnt40KiTb17j-153" vertex="1">
          <mxGeometry width="30" height="23" as="geometry">
            <mxRectangle width="30" height="23" as="alternateBounds" />
          </mxGeometry>
        </mxCell>
        <mxCell id="J758qE4sNnt40KiTb17j-155" value="variable_id" style="shape=partialRectangle;html=1;whiteSpace=wrap;connectable=0;strokeColor=#000000;overflow=hidden;fillColor=#FFFFFF;top=0;left=0;bottom=0;right=0;pointerEvents=1;" parent="J758qE4sNnt40KiTb17j-153" vertex="1">
          <mxGeometry x="30" width="110" height="23" as="geometry">
            <mxRectangle width="110" height="23" as="alternateBounds" />
          </mxGeometry>
        </mxCell>
        <mxCell id="J758qE4sNnt40KiTb17j-156" value="int" style="shape=partialRectangle;html=1;whiteSpace=wrap;connectable=0;strokeColor=#FFFFFF;overflow=hidden;fillColor=#FFFFFF;top=0;left=0;bottom=0;right=0;pointerEvents=1;" parent="J758qE4sNnt40KiTb17j-153" vertex="1">
          <mxGeometry x="140" width="70" height="23" as="geometry">
            <mxRectangle width="70" height="23" as="alternateBounds" />
          </mxGeometry>
        </mxCell>
        <mxCell id="J758qE4sNnt40KiTb17j-157" style="shape=tableRow;horizontal=0;startSize=0;swimlaneHead=0;swimlaneBody=0;strokeColor=inherit;top=0;left=0;bottom=0;right=0;collapsible=0;dropTarget=0;fillColor=none;points=[[0,0.5],[1,0.5]];portConstraint=eastwest;" parent="J758qE4sNnt40KiTb17j-152" vertex="1">
          <mxGeometry y="53" width="210" height="22" as="geometry" />
        </mxCell>
        <mxCell id="J758qE4sNnt40KiTb17j-158" value="" style="shape=partialRectangle;html=1;whiteSpace=wrap;connectable=0;strokeColor=#FFFFFF;overflow=hidden;fillColor=#9BFF94;top=0;left=0;bottom=0;right=0;pointerEvents=1;" parent="J758qE4sNnt40KiTb17j-157" vertex="1">
          <mxGeometry width="30" height="22" as="geometry">
            <mxRectangle width="30" height="22" as="alternateBounds" />
          </mxGeometry>
        </mxCell>
        <mxCell id="J758qE4sNnt40KiTb17j-159" value="variable_name" style="shape=partialRectangle;html=1;whiteSpace=wrap;connectable=0;strokeColor=#FFFFFF;overflow=hidden;fillColor=#FFFFFF;top=0;left=0;bottom=0;right=0;pointerEvents=1;" parent="J758qE4sNnt40KiTb17j-157" vertex="1">
          <mxGeometry x="30" width="110" height="22" as="geometry">
            <mxRectangle width="110" height="22" as="alternateBounds" />
          </mxGeometry>
        </mxCell>
        <mxCell id="J758qE4sNnt40KiTb17j-160" value="varchar" style="shape=partialRectangle;html=1;whiteSpace=wrap;connectable=0;strokeColor=#FFFFFF;overflow=hidden;fillColor=#FFFFFF;top=0;left=0;bottom=0;right=0;pointerEvents=1;" parent="J758qE4sNnt40KiTb17j-157" vertex="1">
          <mxGeometry x="140" width="70" height="22" as="geometry">
            <mxRectangle width="70" height="22" as="alternateBounds" />
          </mxGeometry>
        </mxCell>
        <mxCell id="J758qE4sNnt40KiTb17j-161" style="shape=tableRow;horizontal=0;startSize=0;swimlaneHead=0;swimlaneBody=0;strokeColor=inherit;top=0;left=0;bottom=0;right=0;collapsible=0;dropTarget=0;fillColor=none;points=[[0,0.5],[1,0.5]];portConstraint=eastwest;" parent="J758qE4sNnt40KiTb17j-152" vertex="1">
          <mxGeometry y="75" width="210" height="22" as="geometry" />
        </mxCell>
        <mxCell id="J758qE4sNnt40KiTb17j-162" value="" style="shape=partialRectangle;html=1;whiteSpace=wrap;connectable=0;strokeColor=#FFFFFF;overflow=hidden;fillColor=#9BFF94;top=0;left=0;bottom=0;right=0;pointerEvents=1;" parent="J758qE4sNnt40KiTb17j-161" vertex="1">
          <mxGeometry width="30" height="22" as="geometry">
            <mxRectangle width="30" height="22" as="alternateBounds" />
          </mxGeometry>
        </mxCell>
        <mxCell id="J758qE4sNnt40KiTb17j-163" value="measurement_unit" style="shape=partialRectangle;html=1;whiteSpace=wrap;connectable=0;strokeColor=#FFFFFF;overflow=hidden;fillColor=#FFFFFF;top=0;left=0;bottom=0;right=0;pointerEvents=1;" parent="J758qE4sNnt40KiTb17j-161" vertex="1">
          <mxGeometry x="30" width="110" height="22" as="geometry">
            <mxRectangle width="110" height="22" as="alternateBounds" />
          </mxGeometry>
        </mxCell>
        <mxCell id="J758qE4sNnt40KiTb17j-164" value="varchar" style="shape=partialRectangle;html=1;whiteSpace=wrap;connectable=0;strokeColor=#FFFFFF;overflow=hidden;fillColor=#FFFFFF;top=0;left=0;bottom=0;right=0;pointerEvents=1;" parent="J758qE4sNnt40KiTb17j-161" vertex="1">
          <mxGeometry x="140" width="70" height="22" as="geometry">
            <mxRectangle width="70" height="22" as="alternateBounds" />
          </mxGeometry>
        </mxCell>
        <mxCell id="J758qE4sNnt40KiTb17j-181" value="SERIES_DATA" style="shape=table;startSize=30;container=1;collapsible=0;childLayout=tableLayout;fillColor=#66B2FF;" parent="J758qE4sNnt40KiTb17j-215" vertex="1">
          <mxGeometry x="880" y="53" width="210" height="141" as="geometry" />
        </mxCell>
        <mxCell id="J758qE4sNnt40KiTb17j-182" value="" style="shape=tableRow;horizontal=0;startSize=0;swimlaneHead=0;swimlaneBody=0;strokeColor=inherit;top=0;left=0;bottom=0;right=0;collapsible=0;dropTarget=0;fillColor=#9BFF94;points=[[0,0.5],[1,0.5]];portConstraint=eastwest;" parent="J758qE4sNnt40KiTb17j-181" vertex="1">
          <mxGeometry y="30" width="210" height="23" as="geometry" />
        </mxCell>
        <mxCell id="J758qE4sNnt40KiTb17j-183" value="PK/FK" style="shape=partialRectangle;html=1;whiteSpace=wrap;connectable=0;strokeColor=#FFFFFF;overflow=hidden;fillColor=#9BFF94;top=0;left=0;bottom=0;right=0;pointerEvents=1;" parent="J758qE4sNnt40KiTb17j-182" vertex="1">
          <mxGeometry width="40" height="23" as="geometry">
            <mxRectangle width="40" height="23" as="alternateBounds" />
          </mxGeometry>
        </mxCell>
        <mxCell id="J758qE4sNnt40KiTb17j-184" value="variable_id" style="shape=partialRectangle;html=1;whiteSpace=wrap;connectable=0;strokeColor=#000000;overflow=hidden;fillColor=#FFFFFF;top=0;left=0;bottom=0;right=0;pointerEvents=1;" parent="J758qE4sNnt40KiTb17j-182" vertex="1">
          <mxGeometry x="40" width="100" height="23" as="geometry">
            <mxRectangle width="100" height="23" as="alternateBounds" />
          </mxGeometry>
        </mxCell>
        <mxCell id="J758qE4sNnt40KiTb17j-185" value="int" style="shape=partialRectangle;html=1;whiteSpace=wrap;connectable=0;strokeColor=#FFFFFF;overflow=hidden;fillColor=#FFFFFF;top=0;left=0;bottom=0;right=0;pointerEvents=1;" parent="J758qE4sNnt40KiTb17j-182" vertex="1">
          <mxGeometry x="140" width="70" height="23" as="geometry">
            <mxRectangle width="70" height="23" as="alternateBounds" />
          </mxGeometry>
        </mxCell>
        <mxCell id="J758qE4sNnt40KiTb17j-186" style="shape=tableRow;horizontal=0;startSize=0;swimlaneHead=0;swimlaneBody=0;strokeColor=inherit;top=0;left=0;bottom=0;right=0;collapsible=0;dropTarget=0;fillColor=none;points=[[0,0.5],[1,0.5]];portConstraint=eastwest;" parent="J758qE4sNnt40KiTb17j-181" vertex="1">
          <mxGeometry y="53" width="210" height="22" as="geometry" />
        </mxCell>
        <mxCell id="J758qE4sNnt40KiTb17j-187" value="PK/FK" style="shape=partialRectangle;html=1;whiteSpace=wrap;connectable=0;strokeColor=#FFFFFF;overflow=hidden;fillColor=#9BFF94;top=0;left=0;bottom=0;right=0;pointerEvents=1;" parent="J758qE4sNnt40KiTb17j-186" vertex="1">
          <mxGeometry width="40" height="22" as="geometry">
            <mxRectangle width="40" height="22" as="alternateBounds" />
          </mxGeometry>
        </mxCell>
        <mxCell id="J758qE4sNnt40KiTb17j-188" value="city_id" style="shape=partialRectangle;html=1;whiteSpace=wrap;connectable=0;strokeColor=#FFFFFF;overflow=hidden;fillColor=#FFFFFF;top=0;left=0;bottom=0;right=0;pointerEvents=1;" parent="J758qE4sNnt40KiTb17j-186" vertex="1">
          <mxGeometry x="40" width="100" height="22" as="geometry">
            <mxRectangle width="100" height="22" as="alternateBounds" />
          </mxGeometry>
        </mxCell>
        <mxCell id="J758qE4sNnt40KiTb17j-189" value="int" style="shape=partialRectangle;html=1;whiteSpace=wrap;connectable=0;strokeColor=#FFFFFF;overflow=hidden;fillColor=#FFFFFF;top=0;left=0;bottom=0;right=0;pointerEvents=1;" parent="J758qE4sNnt40KiTb17j-186" vertex="1">
          <mxGeometry x="140" width="70" height="22" as="geometry">
            <mxRectangle width="70" height="22" as="alternateBounds" />
          </mxGeometry>
        </mxCell>
        <mxCell id="J758qE4sNnt40KiTb17j-190" style="shape=tableRow;horizontal=0;startSize=0;swimlaneHead=0;swimlaneBody=0;strokeColor=inherit;top=0;left=0;bottom=0;right=0;collapsible=0;dropTarget=0;fillColor=none;points=[[0,0.5],[1,0.5]];portConstraint=eastwest;" parent="J758qE4sNnt40KiTb17j-181" vertex="1">
          <mxGeometry y="75" width="210" height="22" as="geometry" />
        </mxCell>
        <mxCell id="J758qE4sNnt40KiTb17j-191" value="PK" style="shape=partialRectangle;html=1;whiteSpace=wrap;connectable=0;strokeColor=#FFFFFF;overflow=hidden;fillColor=#9BFF94;top=0;left=0;bottom=0;right=0;pointerEvents=1;" parent="J758qE4sNnt40KiTb17j-190" vertex="1">
          <mxGeometry width="40" height="22" as="geometry">
            <mxRectangle width="40" height="22" as="alternateBounds" />
          </mxGeometry>
        </mxCell>
        <mxCell id="J758qE4sNnt40KiTb17j-192" value="date" style="shape=partialRectangle;html=1;whiteSpace=wrap;connectable=0;strokeColor=#FFFFFF;overflow=hidden;fillColor=#FFFFFF;top=0;left=0;bottom=0;right=0;pointerEvents=1;" parent="J758qE4sNnt40KiTb17j-190" vertex="1">
          <mxGeometry x="40" width="100" height="22" as="geometry">
            <mxRectangle width="100" height="22" as="alternateBounds" />
          </mxGeometry>
        </mxCell>
        <mxCell id="J758qE4sNnt40KiTb17j-193" value="date" style="shape=partialRectangle;html=1;whiteSpace=wrap;connectable=0;strokeColor=#FFFFFF;overflow=hidden;fillColor=#FFFFFF;top=0;left=0;bottom=0;right=0;pointerEvents=1;" parent="J758qE4sNnt40KiTb17j-190" vertex="1">
          <mxGeometry x="140" width="70" height="22" as="geometry">
            <mxRectangle width="70" height="22" as="alternateBounds" />
          </mxGeometry>
        </mxCell>
        <mxCell id="J758qE4sNnt40KiTb17j-202" style="shape=tableRow;horizontal=0;startSize=0;swimlaneHead=0;swimlaneBody=0;strokeColor=inherit;top=0;left=0;bottom=0;right=0;collapsible=0;dropTarget=0;fillColor=none;points=[[0,0.5],[1,0.5]];portConstraint=eastwest;" parent="J758qE4sNnt40KiTb17j-181" vertex="1">
          <mxGeometry y="97" width="210" height="22" as="geometry" />
        </mxCell>
        <mxCell id="J758qE4sNnt40KiTb17j-203" style="shape=partialRectangle;html=1;whiteSpace=wrap;connectable=0;strokeColor=#FFFFFF;overflow=hidden;fillColor=#9BFF94;top=0;left=0;bottom=0;right=0;pointerEvents=1;" parent="J758qE4sNnt40KiTb17j-202" vertex="1">
          <mxGeometry width="40" height="22" as="geometry">
            <mxRectangle width="40" height="22" as="alternateBounds" />
          </mxGeometry>
        </mxCell>
        <mxCell id="J758qE4sNnt40KiTb17j-204" value="value" style="shape=partialRectangle;html=1;whiteSpace=wrap;connectable=0;strokeColor=#FFFFFF;overflow=hidden;fillColor=#FFFFFF;top=0;left=0;bottom=0;right=0;pointerEvents=1;" parent="J758qE4sNnt40KiTb17j-202" vertex="1">
          <mxGeometry x="40" width="100" height="22" as="geometry">
            <mxRectangle width="100" height="22" as="alternateBounds" />
          </mxGeometry>
        </mxCell>
        <mxCell id="J758qE4sNnt40KiTb17j-205" value="float" style="shape=partialRectangle;html=1;whiteSpace=wrap;connectable=0;strokeColor=#FFFFFF;overflow=hidden;fillColor=#FFFFFF;top=0;left=0;bottom=0;right=0;pointerEvents=1;" parent="J758qE4sNnt40KiTb17j-202" vertex="1">
          <mxGeometry x="140" width="70" height="22" as="geometry">
            <mxRectangle width="70" height="22" as="alternateBounds" />
          </mxGeometry>
        </mxCell>
        <mxCell id="J758qE4sNnt40KiTb17j-206" style="shape=tableRow;horizontal=0;startSize=0;swimlaneHead=0;swimlaneBody=0;strokeColor=inherit;top=0;left=0;bottom=0;right=0;collapsible=0;dropTarget=0;fillColor=none;points=[[0,0.5],[1,0.5]];portConstraint=eastwest;" parent="J758qE4sNnt40KiTb17j-181" vertex="1">
          <mxGeometry y="119" width="210" height="22" as="geometry" />
        </mxCell>
        <mxCell id="J758qE4sNnt40KiTb17j-207" style="shape=partialRectangle;html=1;whiteSpace=wrap;connectable=0;strokeColor=#FFFFFF;overflow=hidden;fillColor=#9BFF94;top=0;left=0;bottom=0;right=0;pointerEvents=1;" parent="J758qE4sNnt40KiTb17j-206" vertex="1">
          <mxGeometry width="40" height="22" as="geometry">
            <mxRectangle width="40" height="22" as="alternateBounds" />
          </mxGeometry>
        </mxCell>
        <mxCell id="J758qE4sNnt40KiTb17j-208" value="is_historical" style="shape=partialRectangle;html=1;whiteSpace=wrap;connectable=0;strokeColor=#FFFFFF;overflow=hidden;fillColor=#FFFFFF;top=0;left=0;bottom=0;right=0;pointerEvents=1;" parent="J758qE4sNnt40KiTb17j-206" vertex="1">
          <mxGeometry x="40" width="100" height="22" as="geometry">
            <mxRectangle width="100" height="22" as="alternateBounds" />
          </mxGeometry>
        </mxCell>
        <mxCell id="J758qE4sNnt40KiTb17j-209" value="bool" style="shape=partialRectangle;html=1;whiteSpace=wrap;connectable=0;strokeColor=#FFFFFF;overflow=hidden;fillColor=#FFFFFF;top=0;left=0;bottom=0;right=0;pointerEvents=1;" parent="J758qE4sNnt40KiTb17j-206" vertex="1">
          <mxGeometry x="140" width="70" height="22" as="geometry">
            <mxRectangle width="70" height="22" as="alternateBounds" />
          </mxGeometry>
        </mxCell>
        <mxCell id="J758qE4sNnt40KiTb17j-196" value="" style="edgeStyle=entityRelationEdgeStyle;fontSize=12;html=1;endArrow=ERoneToMany;rounded=1;startArrow=ERone;startFill=0;curved=0;entryX=0;entryY=0.5;entryDx=0;entryDy=0;exitX=1;exitY=0.5;exitDx=0;exitDy=0;" parent="J758qE4sNnt40KiTb17j-215" source="J758qE4sNnt40KiTb17j-32" target="J758qE4sNnt40KiTb17j-186" edge="1">
          <mxGeometry width="100" height="100" relative="1" as="geometry">
            <mxPoint x="820" y="270" as="sourcePoint" />
            <mxPoint x="880" y="160" as="targetPoint" />
            <Array as="points">
              <mxPoint x="840" y="230" />
              <mxPoint x="840" y="190" />
            </Array>
          </mxGeometry>
        </mxCell>
        <mxCell id="J758qE4sNnt40KiTb17j-197" value="" style="edgeStyle=entityRelationEdgeStyle;fontSize=12;html=1;endArrow=ERoneToMany;rounded=1;startArrow=ERone;startFill=0;curved=0;entryX=0;entryY=0.5;entryDx=0;entryDy=0;exitX=1;exitY=0.5;exitDx=0;exitDy=0;" parent="J758qE4sNnt40KiTb17j-215" source="J758qE4sNnt40KiTb17j-153" target="J758qE4sNnt40KiTb17j-182" edge="1">
          <mxGeometry width="100" height="100" relative="1" as="geometry">
            <mxPoint x="787" y="240" as="sourcePoint" />
            <mxPoint x="851" y="87" as="targetPoint" />
            <Array as="points">
              <mxPoint x="811" y="200" />
              <mxPoint x="811" y="160" />
            </Array>
          </mxGeometry>
        </mxCell>
      </root>
    </mxGraphModel>
  </diagram>
</mxfile>
